<svg xmlns="http://www.w3.org/2000/svg" viewBox="0 0 1600 900" width="1600" height="900" role="img" aria-label="Native OTel where it exists — Trove demo video placeholder">
  <title>Native OTel where it exists — Trove demo video coming soon</title>
  <defs>
    <radialGradient id="glow" cx="50%" cy="38%" r="62%">
      <stop offset="0%" stop-color="#2dbfb8" stop-opacity="0.16"/>
      <stop offset="48%" stop-color="#2dbfb8" stop-opacity="0.05"/>
      <stop offset="100%" stop-color="#2dbfb8" stop-opacity="0"/>
    </radialGradient>
    <linearGradient id="panel" x1="0" y1="0" x2="0" y2="1">
      <stop offset="0%" stop-color="#242426"/>
      <stop offset="100%" stop-color="#1c1c1e"/>
    </linearGradient>
    <linearGradient id="play" x1="0" y1="0" x2="1" y2="1">
      <stop offset="0%" stop-color="#2dbfb8"/>
      <stop offset="100%" stop-color="#26a8a2"/>
    </linearGradient>
    <filter id="soft" x="-30%" y="-30%" width="160%" height="160%">
      <feGaussianBlur stdDeviation="14"/>
    </filter>
  </defs>

  <!-- canvas -->
  <rect width="1600" height="900" fill="#1c1c1e"/>
  <rect width="1600" height="900" fill="url(#panel)"/>
  <rect width="1600" height="900" fill="url(#glow)"/>

  <!-- subtle dotted grid texture -->
  <g fill="#2dbfb8" opacity="0.05">
    <circle cx="70" cy="70" r="2.5"/><circle cx="140" cy="70" r="2.5"/><circle cx="210" cy="70" r="2.5"/><circle cx="280" cy="70" r="2.5"/><circle cx="350" cy="70" r="2.5"/><circle cx="420" cy="70" r="2.5"/><circle cx="490" cy="70" r="2.5"/><circle cx="560" cy="70" r="2.5"/><circle cx="630" cy="70" r="2.5"/><circle cx="700" cy="70" r="2.5"/><circle cx="770" cy="70" r="2.5"/><circle cx="840" cy="70" r="2.5"/><circle cx="910" cy="70" r="2.5"/><circle cx="980" cy="70" r="2.5"/><circle cx="1050" cy="70" r="2.5"/><circle cx="1120" cy="70" r="2.5"/><circle cx="1190" cy="70" r="2.5"/><circle cx="1260" cy="70" r="2.5"/><circle cx="1330" cy="70" r="2.5"/><circle cx="1400" cy="70" r="2.5"/><circle cx="1470" cy="70" r="2.5"/><circle cx="1540" cy="70" r="2.5"/><circle cx="70" cy="140" r="2.5"/><circle cx="140" cy="140" r="2.5"/><circle cx="210" cy="140" r="2.5"/><circle cx="280" cy="140" r="2.5"/><circle cx="350" cy="140" r="2.5"/><circle cx="420" cy="140" r="2.5"/><circle cx="490" cy="140" r="2.5"/><circle cx="560" cy="140" r="2.5"/><circle cx="630" cy="140" r="2.5"/><circle cx="700" cy="140" r="2.5"/><circle cx="770" cy="140" r="2.5"/><circle cx="840" cy="140" r="2.5"/><circle cx="910" cy="140" r="2.5"/><circle cx="980" cy="140" r="2.5"/><circle cx="1050" cy="140" r="2.5"/><circle cx="1120" cy="140" r="2.5"/><circle cx="1190" cy="140" r="2.5"/><circle cx="1260" cy="140" r="2.5"/><circle cx="1330" cy="140" r="2.5"/><circle cx="1400" cy="140" r="2.5"/><circle cx="1470" cy="140" r="2.5"/><circle cx="1540" cy="140" r="2.5"/><circle cx="70" cy="210" r="2.5"/><circle cx="140" cy="210" r="2.5"/><circle cx="210" cy="210" r="2.5"/><circle cx="280" cy="210" r="2.5"/><circle cx="350" cy="210" r="2.5"/><circle cx="420" cy="210" r="2.5"/><circle cx="490" cy="210" r="2.5"/><circle cx="560" cy="210" r="2.5"/><circle cx="630" cy="210" r="2.5"/><circle cx="700" cy="210" r="2.5"/><circle cx="770" cy="210" r="2.5"/><circle cx="840" cy="210" r="2.5"/><circle cx="910" cy="210" r="2.5"/><circle cx="980" cy="210" r="2.5"/><circle cx="1050" cy="210" r="2.5"/><circle cx="1120" cy="210" r="2.5"/><circle cx="1190" cy="210" r="2.5"/><circle cx="1260" cy="210" r="2.5"/><circle cx="1330" cy="210" r="2.5"/><circle cx="1400" cy="210" r="2.5"/><circle cx="1470" cy="210" r="2.5"/><circle cx="1540" cy="210" r="2.5"/><circle cx="70" cy="280" r="2.5"/><circle cx="140" cy="280" r="2.5"/><circle cx="210" cy="280" r="2.5"/><circle cx="280" cy="280" r="2.5"/><circle cx="350" cy="280" r="2.5"/><circle cx="420" cy="280" r="2.5"/><circle cx="490" cy="280" r="2.5"/><circle cx="560" cy="280" r="2.5"/><circle cx="630" cy="280" r="2.5"/><circle cx="700" cy="280" r="2.5"/><circle cx="770" cy="280" r="2.5"/><circle cx="840" cy="280" r="2.5"/><circle cx="910" cy="280" r="2.5"/><circle cx="980" cy="280" r="2.5"/><circle cx="1050" cy="280" r="2.5"/><circle cx="1120" cy="280" r="2.5"/><circle cx="1190" cy="280" r="2.5"/><circle cx="1260" cy="280" r="2.5"/><circle cx="1330" cy="280" r="2.5"/><circle cx="1400" cy="280" r="2.5"/><circle cx="1470" cy="280" r="2.5"/><circle cx="1540" cy="280" r="2.5"/><circle cx="70" cy="350" r="2.5"/><circle cx="140" cy="350" r="2.5"/><circle cx="210" cy="350" r="2.5"/><circle cx="280" cy="350" r="2.5"/><circle cx="350" cy="350" r="2.5"/><circle cx="420" cy="350" r="2.5"/><circle cx="490" cy="350" r="2.5"/><circle cx="560" cy="350" r="2.5"/><circle cx="630" cy="350" r="2.5"/><circle cx="700" cy="350" r="2.5"/><circle cx="770" cy="350" r="2.5"/><circle cx="840" cy="350" r="2.5"/><circle cx="910" cy="350" r="2.5"/><circle cx="980" cy="350" r="2.5"/><circle cx="1050" cy="350" r="2.5"/><circle cx="1120" cy="350" r="2.5"/><circle cx="1190" cy="350" r="2.5"/><circle cx="1260" cy="350" r="2.5"/><circle cx="1330" cy="350" r="2.5"/><circle cx="1400" cy="350" r="2.5"/><circle cx="1470" cy="350" r="2.5"/><circle cx="1540" cy="350" r="2.5"/><circle cx="70" cy="420" r="2.5"/><circle cx="140" cy="420" r="2.5"/><circle cx="210" cy="420" r="2.5"/><circle cx="280" cy="420" r="2.5"/><circle cx="350" cy="420" r="2.5"/><circle cx="420" cy="420" r="2.5"/><circle cx="490" cy="420" r="2.5"/><circle cx="560" cy="420" r="2.5"/><circle cx="630" cy="420" r="2.5"/><circle cx="700" cy="420" r="2.5"/><circle cx="770" cy="420" r="2.5"/><circle cx="840" cy="420" r="2.5"/><circle cx="910" cy="420" r="2.5"/><circle cx="980" cy="420" r="2.5"/><circle cx="1050" cy="420" r="2.5"/><circle cx="1120" cy="420" r="2.5"/><circle cx="1190" cy="420" r="2.5"/><circle cx="1260" cy="420" r="2.5"/><circle cx="1330" cy="420" r="2.5"/><circle cx="1400" cy="420" r="2.5"/><circle cx="1470" cy="420" r="2.5"/><circle cx="1540" cy="420" r="2.5"/><circle cx="70" cy="490" r="2.5"/><circle cx="140" cy="490" r="2.5"/><circle cx="210" cy="490" r="2.5"/><circle cx="280" cy="490" r="2.5"/><circle cx="350" cy="490" r="2.5"/><circle cx="420" cy="490" r="2.5"/><circle cx="490" cy="490" r="2.5"/><circle cx="560" cy="490" r="2.5"/><circle cx="630" cy="490" r="2.5"/><circle cx="700" cy="490" r="2.5"/><circle cx="770" cy="490" r="2.5"/><circle cx="840" cy="490" r="2.5"/><circle cx="910" cy="490" r="2.5"/><circle cx="980" cy="490" r="2.5"/><circle cx="1050" cy="490" r="2.5"/><circle cx="1120" cy="490" r="2.5"/><circle cx="1190" cy="490" r="2.5"/><circle cx="1260" cy="490" r="2.5"/><circle cx="1330" cy="490" r="2.5"/><circle cx="1400" cy="490" r="2.5"/><circle cx="1470" cy="490" r="2.5"/><circle cx="1540" cy="490" r="2.5"/><circle cx="70" cy="560" r="2.5"/><circle cx="140" cy="560" r="2.5"/><circle cx="210" cy="560" r="2.5"/><circle cx="280" cy="560" r="2.5"/><circle cx="350" cy="560" r="2.5"/><circle cx="420" cy="560" r="2.5"/><circle cx="490" cy="560" r="2.5"/><circle cx="560" cy="560" r="2.5"/><circle cx="630" cy="560" r="2.5"/><circle cx="700" cy="560" r="2.5"/><circle cx="770" cy="560" r="2.5"/><circle cx="840" cy="560" r="2.5"/><circle cx="910" cy="560" r="2.5"/><circle cx="980" cy="560" r="2.5"/><circle cx="1050" cy="560" r="2.5"/><circle cx="1120" cy="560" r="2.5"/><circle cx="1190" cy="560" r="2.5"/><circle cx="1260" cy="560" r="2.5"/><circle cx="1330" cy="560" r="2.5"/><circle cx="1400" cy="560" r="2.5"/><circle cx="1470" cy="560" r="2.5"/><circle cx="1540" cy="560" r="2.5"/><circle cx="70" cy="630" r="2.5"/><circle cx="140" cy="630" r="2.5"/><circle cx="210" cy="630" r="2.5"/><circle cx="280" cy="630" r="2.5"/><circle cx="350" cy="630" r="2.5"/><circle cx="420" cy="630" r="2.5"/><circle cx="490" cy="630" r="2.5"/><circle cx="560" cy="630" r="2.5"/><circle cx="630" cy="630" r="2.5"/><circle cx="700" cy="630" r="2.5"/><circle cx="770" cy="630" r="2.5"/><circle cx="840" cy="630" r="2.5"/><circle cx="910" cy="630" r="2.5"/><circle cx="980" cy="630" r="2.5"/><circle cx="1050" cy="630" r="2.5"/><circle cx="1120" cy="630" r="2.5"/><circle cx="1190" cy="630" r="2.5"/><circle cx="1260" cy="630" r="2.5"/><circle cx="1330" cy="630" r="2.5"/><circle cx="1400" cy="630" r="2.5"/><circle cx="1470" cy="630" r="2.5"/><circle cx="1540" cy="630" r="2.5"/><circle cx="70" cy="700" r="2.5"/><circle cx="140" cy="700" r="2.5"/><circle cx="210" cy="700" r="2.5"/><circle cx="280" cy="700" r="2.5"/><circle cx="350" cy="700" r="2.5"/><circle cx="420" cy="700" r="2.5"/><circle cx="490" cy="700" r="2.5"/><circle cx="560" cy="700" r="2.5"/><circle cx="630" cy="700" r="2.5"/><circle cx="700" cy="700" r="2.5"/><circle cx="770" cy="700" r="2.5"/><circle cx="840" cy="700" r="2.5"/><circle cx="910" cy="700" r="2.5"/><circle cx="980" cy="700" r="2.5"/><circle cx="1050" cy="700" r="2.5"/><circle cx="1120" cy="700" r="2.5"/><circle cx="1190" cy="700" r="2.5"/><circle cx="1260" cy="700" r="2.5"/><circle cx="1330" cy="700" r="2.5"/><circle cx="1400" cy="700" r="2.5"/><circle cx="1470" cy="700" r="2.5"/><circle cx="1540" cy="700" r="2.5"/><circle cx="70" cy="770" r="2.5"/><circle cx="140" cy="770" r="2.5"/><circle cx="210" cy="770" r="2.5"/><circle cx="280" cy="770" r="2.5"/><circle cx="350" cy="770" r="2.5"/><circle cx="420" cy="770" r="2.5"/><circle cx="490" cy="770" r="2.5"/><circle cx="560" cy="770" r="2.5"/><circle cx="630" cy="770" r="2.5"/><circle cx="700" cy="770" r="2.5"/><circle cx="770" cy="770" r="2.5"/><circle cx="840" cy="770" r="2.5"/><circle cx="910" cy="770" r="2.5"/><circle cx="980" cy="770" r="2.5"/><circle cx="1050" cy="770" r="2.5"/><circle cx="1120" cy="770" r="2.5"/><circle cx="1190" cy="770" r="2.5"/><circle cx="1260" cy="770" r="2.5"/><circle cx="1330" cy="770" r="2.5"/><circle cx="1400" cy="770" r="2.5"/><circle cx="1470" cy="770" r="2.5"/><circle cx="1540" cy="770" r="2.5"/><circle cx="70" cy="840" r="2.5"/><circle cx="140" cy="840" r="2.5"/><circle cx="210" cy="840" r="2.5"/><circle cx="280" cy="840" r="2.5"/><circle cx="350" cy="840" r="2.5"/><circle cx="420" cy="840" r="2.5"/><circle cx="490" cy="840" r="2.5"/><circle cx="560" cy="840" r="2.5"/><circle cx="630" cy="840" r="2.5"/><circle cx="700" cy="840" r="2.5"/><circle cx="770" cy="840" r="2.5"/><circle cx="840" cy="840" r="2.5"/><circle cx="910" cy="840" r="2.5"/><circle cx="980" cy="840" r="2.5"/><circle cx="1050" cy="840" r="2.5"/><circle cx="1120" cy="840" r="2.5"/><circle cx="1190" cy="840" r="2.5"/><circle cx="1260" cy="840" r="2.5"/><circle cx="1330" cy="840" r="2.5"/><circle cx="1400" cy="840" r="2.5"/><circle cx="1470" cy="840" r="2.5"/><circle cx="1540" cy="840" r="2.5"/>
  </g>

  <!-- teal accent border / glow frame -->
  <rect x="28" y="28" width="1544" height="844" rx="26" fill="none" stroke="#2dbfb8" stroke-opacity="0.16" stroke-width="14" filter="url(#soft)"/>
  <rect x="34" y="34" width="1532" height="832" rx="22" fill="none" stroke="#2dbfb8" stroke-width="2" stroke-opacity="0.55"/>

  <!-- wordmark (top-left) -->
  <g transform="translate(72,78)">
    <!-- mark: rounded teal tile with stylized chest/T -->
    <rect x="0" y="-34" width="52" height="52" rx="13" fill="#2dbfb8"/>
    <rect x="9" y="-22" width="34" height="9" rx="3" fill="#1c1c1e"/>
    <rect x="17.5" y="-22" width="9" height="29" rx="3" fill="#1c1c1e"/>
    <text x="70" y="8" font-family="-apple-system, BlinkMacSystemFont, 'SF Pro Text', 'Segoe UI', 'Helvetica Neue', sans-serif" font-size="38" font-weight="700" letter-spacing="0.5" fill="#f2f2f7">Trove</text>
    <text x="190" y="8" font-family="-apple-system, BlinkMacSystemFont, 'SF Pro Text', 'Segoe UI', 'Helvetica Neue', sans-serif" font-size="20" font-weight="500" letter-spacing="0.3" fill="#8e8e93">by Intevity</text>
  </g>

  <!-- kicker -->
  <text x="800" y="318" text-anchor="middle" font-family="-apple-system, BlinkMacSystemFont, 'SF Pro Text', 'Segoe UI', 'Helvetica Neue', sans-serif" font-size="22" font-weight="600" letter-spacing="4" fill="#2dbfb8">DEMO CLIP</text>

  <!-- title -->
  <text x="800" y="438" text-anchor="middle" font-family="-apple-system, BlinkMacSystemFont, 'SF Pro Text', 'Segoe UI', 'Helvetica Neue', sans-serif" font-size="78" font-weight="700" letter-spacing="-1.5" fill="#f2f2f7">Native OTel</text><text x="800" y="528" text-anchor="middle" font-family="-apple-system, BlinkMacSystemFont, 'SF Pro Text', 'Segoe UI', 'Helvetica Neue', sans-serif" font-size="78" font-weight="700" letter-spacing="-1.5" fill="#f2f2f7">where it exists</text>

  <!-- play glyph -->
  <g transform="translate(800,650)">
    <circle r="62" fill="#2dbfb8" opacity="0.14" filter="url(#soft)"/>
    <circle r="52" fill="none" stroke="#2dbfb8" stroke-width="2.5" stroke-opacity="0.6"/>
    <circle r="52" fill="url(#play)" opacity="0.14"/>
    <path d="M -16 -26 L 30 0 L -16 26 Z" fill="url(#play)"/>
  </g>

  <!-- subline -->
  <text x="800" y="772" text-anchor="middle" font-family="-apple-system, BlinkMacSystemFont, 'SF Pro Text', 'Segoe UI', 'Helvetica Neue', sans-serif" font-size="26" font-weight="500" fill="#8e8e93">Demo video coming soon</text>

  <!-- footer accent line -->
  <rect x="700" y="822" width="200" height="4" rx="2" fill="#2dbfb8" opacity="0.5"/>
</svg>
